<?xml version="1.0"?>
<svg xmlns="http://www.w3.org/2000/svg"
xmlns:xlink="http://www.w3.org/1999/xlink" xmlns:cml="http://www.xml-cml.org/schema" width="511.19" height="518.117" x="0" y="0" font-family="sans-serif" stroke="rgb(0,0,0)" stroke-width="1"  stroke-linecap="round">
<rect x="0%" y="0%" width="100%" height="100%" stroke-width="0" fill="rgb(255,255,255)"  />
<line x1="372.2" y1="52.6" x2="378.7" y2="76.5" stroke="rgb(0,0,0)"  stroke-width="1.0"/>
<line x1="380.8" y1="78.6" x2="363.3" y2="96.1" stroke="rgb(0,0,0)"  stroke-width="1.0"/>
<line x1="376.5" y1="74.4" x2="359.0" y2="91.9" stroke="rgb(0,0,0)"  stroke-width="1.0"/>
<line x1="378.7" y1="76.5" x2="415.1" y2="86.3" stroke="rgb(0,0,0)"  stroke-width="1.0"/>
<line x1="415.1" y1="86.3" x2="424.9" y2="122.8" stroke="rgb(0,0,0)"  stroke-width="1.0"/>
<line x1="424.9" y1="122.8" x2="448.9" y2="116.3" stroke="rgb(0,0,0)"  stroke-width="1.0"/>
<line x1="424.9" y1="122.8" x2="434.7" y2="159.2" stroke="rgb(0,0,0)"  stroke-width="1.0"/>
<line x1="434.7" y1="159.2" x2="408.0" y2="186.0" stroke="rgb(0,0,0)"  stroke-width="1.0"/>
<line x1="408.0" y1="186.0" x2="425.5" y2="203.5" stroke="rgb(0,0,0)"  stroke-width="1.0"/>
<line x1="408.0" y1="186.0" x2="381.3" y2="212.7" stroke="rgb(0,0,0)"  stroke-width="1.0"/>
<line x1="381.3" y1="212.7" x2="391.1" y2="249.2" stroke="rgb(0,0,0)"  stroke-width="1.0"/>
<line x1="391.1" y1="249.2" x2="284.2" y2="356.0" stroke="rgb(0,0,0)"  stroke-width="1.0"/>
<line x1="218.8" y1="356.0" x2="206.4" y2="334.6" stroke="rgb(0,0,0)"  stroke-width="1.0"/>
<line x1="186.9" y1="323.3" x2="162.1" y2="323.3" stroke="rgb(0,0,0)"  stroke-width="1.0"/>
<line x1="164.7" y1="324.8" x2="152.3" y2="346.3" stroke="rgb(0,0,0)"  stroke-width="1.0"/>
<line x1="159.5" y1="321.8" x2="147.1" y2="343.3" stroke="rgb(0,0,0)"  stroke-width="1.0"/>
<line x1="162.1" y1="323.3" x2="143.2" y2="290.6" stroke="rgb(0,0,0)"  stroke-width="1.0"/>
<line x1="143.2" y1="290.6" x2="110.5" y2="309.5" stroke="rgb(0,0,0)"  stroke-width="1.0"/>
<line x1="110.5" y1="309.5" x2="77.8" y2="290.6" stroke="rgb(0,0,0)"  stroke-width="1.0"/>
<line x1="143.2" y1="290.6" x2="124.3" y2="257.9" stroke="rgb(0,0,0)"  stroke-width="1.0"/>
<line x1="186.0" y1="412.7" x2="167.2" y2="445.4" stroke="rgb(0,0,0)"  stroke-width="1.0"/>
<line x1="316.9" y1="374.9" x2="335.8" y2="342.2" stroke="rgb(0,0,0)"  stroke-width="1.0"/>
<line x1="415.1" y1="86.3" x2="439.1" y2="79.9" stroke="rgb(0,0,0)"  stroke-width="1.0"/>
<line x1="415.1" y1="86.3" x2="421.6" y2="62.3" stroke="rgb(0,0,0)"  stroke-width="1.0"/>
<line x1="420.2" y1="124.8" x2="419.8" y2="123.3" stroke="rgb(0,0,0)"  stroke-width="1.0"/>
<line x1="416.5" y1="126.5" x2="415.7" y2="123.7" stroke="rgb(0,0,0)"  stroke-width="1.0"/>
<line x1="412.7" y1="128.2" x2="411.7" y2="124.2" stroke="rgb(0,0,0)"  stroke-width="1.0"/>
<line x1="409.0" y1="129.8" x2="407.6" y2="124.6" stroke="rgb(0,0,0)"  stroke-width="1.0"/>
<line x1="405.3" y1="131.5" x2="403.5" y2="125.0" stroke="rgb(0,0,0)"  stroke-width="1.0"/>
<line x1="401.5" y1="133.2" x2="399.4" y2="125.4" stroke="rgb(0,0,0)"  stroke-width="1.0"/>
<line x1="464.8" y1="100.4" x2="467.8" y2="89.0" stroke="rgb(0,0,0)"  stroke-width="1.0"/>
<line x1="434.7" y1="159.2" x2="452.2" y2="176.8" stroke="rgb(0,0,0)"  stroke-width="1.0"/>
<line x1="434.7" y1="159.2" x2="458.6" y2="152.8" stroke="rgb(0,0,0)"  stroke-width="1.0"/>
<line x1="403.8" y1="182.9" x2="405.0" y2="181.8" stroke="rgb(0,0,0)"  stroke-width="1.0"/>
<line x1="400.5" y1="180.5" x2="402.6" y2="178.5" stroke="rgb(0,0,0)"  stroke-width="1.0"/>
<line x1="397.2" y1="178.1" x2="400.2" y2="175.2" stroke="rgb(0,0,0)"  stroke-width="1.0"/>
<line x1="393.9" y1="175.7" x2="397.7" y2="171.9" stroke="rgb(0,0,0)"  stroke-width="1.0"/>
<line x1="390.6" y1="173.3" x2="395.3" y2="168.6" stroke="rgb(0,0,0)"  stroke-width="1.0"/>
<line x1="387.3" y1="170.9" x2="392.9" y2="165.2" stroke="rgb(0,0,0)"  stroke-width="1.0"/>
<line x1="447.3" y1="209.3" x2="458.6" y2="206.3" stroke="rgb(0,0,0)"  stroke-width="1.0"/>
<line x1="381.3" y1="212.7" x2="357.3" y2="219.1" stroke="rgb(0,0,0)"  stroke-width="1.0"/>
<line x1="381.3" y1="212.7" x2="363.8" y2="195.2" stroke="rgb(0,0,0)"  stroke-width="1.0"/>
<line x1="391.1" y1="249.2" x2="408.6" y2="266.7" stroke="rgb(0,0,0)"  stroke-width="1.0"/>
<line x1="391.1" y1="249.2" x2="415.0" y2="242.8" stroke="rgb(0,0,0)"  stroke-width="1.0"/>
<polygon points="284.199394 356.017270 259.284243 350.026646 262.345711 342.635609 " stroke-width="1.000000" fill="rgb(0,0,0)"  stroke="rgb(0,0,0)" />
<line x1="250.7" y1="364.8" x2="252.3" y2="364.8" stroke="rgb(0,0,0)"  stroke-width="1.0"/>
<line x1="250.0" y1="356.7" x2="252.9" y2="356.7" stroke="rgb(0,0,0)"  stroke-width="1.0"/>
<line x1="249.4" y1="348.6" x2="253.6" y2="348.6" stroke="rgb(0,0,0)"  stroke-width="1.0"/>
<line x1="248.8" y1="340.5" x2="254.2" y2="340.5" stroke="rgb(0,0,0)"  stroke-width="1.0"/>
<line x1="248.1" y1="332.4" x2="254.8" y2="332.4" stroke="rgb(0,0,0)"  stroke-width="1.0"/>
<line x1="247.5" y1="324.3" x2="255.5" y2="324.3" stroke="rgb(0,0,0)"  stroke-width="1.0"/>
<line x1="218.8" y1="431.6" x2="218.8" y2="456.4" stroke="rgb(0,0,0)"  stroke-width="1.0"/>
<line x1="181.0" y1="413.5" x2="181.0" y2="411.9" stroke="rgb(0,0,0)"  stroke-width="1.0"/>
<line x1="176.9" y1="414.1" x2="176.9" y2="411.2" stroke="rgb(0,0,0)"  stroke-width="1.0"/>
<line x1="172.9" y1="414.8" x2="172.9" y2="410.6" stroke="rgb(0,0,0)"  stroke-width="1.0"/>
<line x1="168.8" y1="415.4" x2="168.8" y2="410.0" stroke="rgb(0,0,0)"  stroke-width="1.0"/>
<line x1="164.8" y1="416.0" x2="164.8" y2="409.3" stroke="rgb(0,0,0)"  stroke-width="1.0"/>
<line x1="160.7" y1="416.7" x2="160.7" y2="408.7" stroke="rgb(0,0,0)"  stroke-width="1.0"/>
<line x1="186.0" y1="374.9" x2="161.3" y2="374.9" stroke="rgb(0,0,0)"  stroke-width="1.0"/>
<line x1="186.0" y1="374.9" x2="173.7" y2="353.4" stroke="rgb(0,0,0)"  stroke-width="1.0"/>
<line x1="220.6" y1="351.2" x2="222.0" y2="352.0" stroke="rgb(0,0,0)"  stroke-width="1.0"/>
<line x1="222.1" y1="347.4" x2="224.6" y2="348.8" stroke="rgb(0,0,0)"  stroke-width="1.0"/>
<line x1="223.5" y1="343.6" x2="227.1" y2="345.7" stroke="rgb(0,0,0)"  stroke-width="1.0"/>
<line x1="225.0" y1="339.8" x2="229.7" y2="342.5" stroke="rgb(0,0,0)"  stroke-width="1.0"/>
<line x1="226.5" y1="335.9" x2="232.3" y2="339.3" stroke="rgb(0,0,0)"  stroke-width="1.0"/>
<line x1="228.0" y1="332.1" x2="234.9" y2="336.1" stroke="rgb(0,0,0)"  stroke-width="1.0"/>
<line x1="147.2" y1="287.4" x2="148.0" y2="288.7" stroke="rgb(0,0,0)"  stroke-width="1.0"/>
<line x1="150.4" y1="284.8" x2="151.8" y2="287.3" stroke="rgb(0,0,0)"  stroke-width="1.0"/>
<line x1="153.6" y1="282.2" x2="155.6" y2="285.8" stroke="rgb(0,0,0)"  stroke-width="1.0"/>
<line x1="156.8" y1="279.6" x2="159.5" y2="284.3" stroke="rgb(0,0,0)"  stroke-width="1.0"/>
<line x1="159.9" y1="277.0" x2="163.3" y2="282.9" stroke="rgb(0,0,0)"  stroke-width="1.0"/>
<line x1="163.1" y1="274.5" x2="167.1" y2="281.4" stroke="rgb(0,0,0)"  stroke-width="1.0"/>
<line x1="110.5" y1="309.5" x2="98.1" y2="330.9" stroke="rgb(0,0,0)"  stroke-width="1.0"/>
<line x1="110.5" y1="309.5" x2="122.9" y2="330.9" stroke="rgb(0,0,0)"  stroke-width="1.0"/>
<line x1="77.8" y1="290.6" x2="53.0" y2="290.6" stroke="rgb(0,0,0)"  stroke-width="1.0"/>
<line x1="77.8" y1="290.6" x2="65.4" y2="312.0" stroke="rgb(0,0,0)"  stroke-width="1.0"/>
<line x1="77.8" y1="290.6" x2="77.8" y2="265.8" stroke="rgb(0,0,0)"  stroke-width="1.0"/>
<line x1="124.3" y1="257.9" x2="102.9" y2="245.5" stroke="rgb(0,0,0)"  stroke-width="1.0"/>
<line x1="124.3" y1="257.9" x2="102.9" y2="270.3" stroke="rgb(0,0,0)"  stroke-width="1.0"/>
<line x1="124.3" y1="257.9" x2="136.7" y2="236.4" stroke="rgb(0,0,0)"  stroke-width="1.0"/>
<line x1="167.2" y1="445.4" x2="145.7" y2="457.8" stroke="rgb(0,0,0)"  stroke-width="1.0"/>
<line x1="167.2" y1="445.4" x2="145.7" y2="433.0" stroke="rgb(0,0,0)"  stroke-width="1.0"/>
<line x1="167.2" y1="445.4" x2="179.5" y2="466.9" stroke="rgb(0,0,0)"  stroke-width="1.0"/>
<line x1="284.2" y1="431.6" x2="284.2" y2="456.4" stroke="rgb(0,0,0)"  stroke-width="1.0"/>
<line x1="316.9" y1="412.7" x2="338.4" y2="425.1" stroke="rgb(0,0,0)"  stroke-width="1.0"/>
<polygon points="316.915910 374.906159 342.227021 370.906159 342.227021 378.906159 " stroke-width="1.000000" fill="rgb(0,0,0)"  stroke="rgb(0,0,0)" />
<line x1="335.8" y1="342.2" x2="357.3" y2="329.8" stroke="rgb(0,0,0)"  stroke-width="1.0"/>
<line x1="335.8" y1="342.2" x2="357.3" y2="354.6" stroke="rgb(0,0,0)"  stroke-width="1.0"/>
<line x1="335.8" y1="342.2" x2="323.4" y2="320.7" stroke="rgb(0,0,0)"  stroke-width="1.0"/>
<line x1="251.5" y1="374.9" x2="251.5" y2="412.7" stroke="rgb(0,0,0)"  stroke-width="1.0"/>
<line x1="251.5" y1="412.7" x2="218.8" y2="431.6" stroke="rgb(0,0,0)"  stroke-width="1.0"/>
<line x1="242.7" y1="409.4" x2="220.4" y2="422.3" stroke="rgb(0,0,0)"  stroke-width="1.0"/>
<line x1="218.8" y1="431.6" x2="186.0" y2="412.7" stroke="rgb(0,0,0)"  stroke-width="1.0"/>
<line x1="186.0" y1="412.7" x2="186.0" y2="374.9" stroke="rgb(0,0,0)"  stroke-width="1.0"/>
<line x1="186.0" y1="374.9" x2="218.8" y2="356.0" stroke="rgb(0,0,0)"  stroke-width="1.0"/>
<line x1="218.8" y1="356.0" x2="251.5" y2="374.9" stroke="rgb(0,0,0)"  stroke-width="1.0"/>
<line x1="284.2" y1="356.0" x2="251.5" y2="374.9" stroke="rgb(0,0,0)"  stroke-width="1.0"/>
<line x1="251.5" y1="412.7" x2="284.2" y2="431.6" stroke="rgb(0,0,0)"  stroke-width="1.0"/>
<line x1="284.2" y1="431.6" x2="316.9" y2="412.7" stroke="rgb(0,0,0)"  stroke-width="1.0"/>
<line x1="285.8" y1="422.3" x2="308.1" y2="409.4" stroke="rgb(0,0,0)"  stroke-width="1.0"/>
<line x1="316.9" y1="412.7" x2="316.9" y2="374.9" stroke="rgb(0,0,0)"  stroke-width="1.0"/>
<line x1="316.9" y1="374.9" x2="284.2" y2="356.0" stroke="rgb(0,0,0)"  stroke-width="1.0"/>
<text x="373.675967" y="35.968000" fill="rgb(255,12,12)"  stroke="rgb(255,12,12)" stroke-width="1" font-size="32" >-</text>
<text x="362.875967" y="48.000000" fill="rgb(255,12,12)"  stroke="rgb(255,12,12)" stroke-width="1" font-size="16" >O</text>
<text x="345.940652" y="111.203454" fill="rgb(255,12,12)"  stroke="rgb(255,12,12)" stroke-width="1" font-size="16" >O</text>
<text x="455.412246" y="120.981062" fill="rgb(255,12,12)"  stroke="rgb(255,12,12)" stroke-width="1" font-size="16" >O</text>
<text x="428.699323" y="220.675048" fill="rgb(255,12,12)"  stroke="rgb(255,12,12)" stroke-width="1" font-size="16" >O</text>
<text x="193.877475" y="331.300755" fill="rgb(255,12,12)"  stroke="rgb(255,12,12)" stroke-width="1" font-size="16" >O</text>
<text x="137.210808" y="364.017270" fill="rgb(255,12,12)"  stroke="rgb(255,12,12)" stroke-width="1" font-size="16" >O</text>
<text x="445.634638" y="84.490531" fill="rgb(191,191,191)"  stroke="rgb(191,191,191)" stroke-width="1" font-size="16" >H</text>
<text x="418.921715" y="57.777608" fill="rgb(191,191,191)"  stroke="rgb(191,191,191)" stroke-width="1" font-size="16" >H</text>
<text x="382.431183" y="140.536279" fill="rgb(191,191,191)"  stroke="rgb(191,191,191)" stroke-width="1" font-size="16" >H</text>
<text x="465.189854" y="84.490531" fill="rgb(191,191,191)"  stroke="rgb(191,191,191)" stroke-width="1" font-size="16" >H</text>
<text x="455.412246" y="193.962125" fill="rgb(191,191,191)"  stroke="rgb(191,191,191)" stroke-width="1" font-size="16" >H</text>
<text x="465.189854" y="157.471594" fill="rgb(191,191,191)"  stroke="rgb(191,191,191)" stroke-width="1" font-size="16" >H</text>
<text x="375.273477" y="167.249202" fill="rgb(191,191,191)"  stroke="rgb(191,191,191)" stroke-width="1" font-size="16" >H</text>
<text x="465.189854" y="210.897439" fill="rgb(191,191,191)"  stroke="rgb(191,191,191)" stroke-width="1" font-size="16" >H</text>
<text x="338.782946" y="230.452656" fill="rgb(191,191,191)"  stroke="rgb(191,191,191)" stroke-width="1" font-size="16" >H</text>
<text x="348.560555" y="193.962125" fill="rgb(191,191,191)"  stroke="rgb(191,191,191)" stroke-width="1" font-size="16" >H</text>
<text x="411.764009" y="283.878502" fill="rgb(191,191,191)"  stroke="rgb(191,191,191)" stroke-width="1" font-size="16" >H</text>
<text x="421.541617" y="247.387971" fill="rgb(191,191,191)"  stroke="rgb(191,191,191)" stroke-width="1" font-size="16" >H</text>
<text x="243.297279" y="349.560341" fill="rgb(191,191,191)"  stroke="rgb(191,191,191)" stroke-width="1" font-size="16" >H</text>
<text x="245.482879" y="307.350604" fill="rgb(191,191,191)"  stroke="rgb(191,191,191)" stroke-width="1" font-size="16" >H</text>
<text x="212.766364" y="477.350604" fill="rgb(191,191,191)"  stroke="rgb(191,191,191)" stroke-width="1" font-size="16" >H</text>
<text x="142.272071" y="420.683937" fill="rgb(191,191,191)"  stroke="rgb(191,191,191)" stroke-width="1" font-size="16" >H</text>
<text x="142.272071" y="382.906159" fill="rgb(191,191,191)"  stroke="rgb(191,191,191)" stroke-width="1" font-size="16" >H</text>
<text x="161.160960" y="350.189644" fill="rgb(191,191,191)"  stroke="rgb(191,191,191)" stroke-width="1" font-size="16" >H</text>
<text x="231.655253" y="331.300755" fill="rgb(191,191,191)"  stroke="rgb(191,191,191)" stroke-width="1" font-size="16" >H</text>
<text x="169.927324" y="279.695351" fill="rgb(191,191,191)"  stroke="rgb(191,191,191)" stroke-width="1" font-size="16" >H</text>
<text x="85.605404" y="350.189644" fill="rgb(191,191,191)"  stroke="rgb(191,191,191)" stroke-width="1" font-size="16" >H</text>
<text x="123.383182" y="350.189644" fill="rgb(191,191,191)"  stroke="rgb(191,191,191)" stroke-width="1" font-size="16" >H</text>
<text x="34.000000" y="298.584240" fill="rgb(191,191,191)"  stroke="rgb(191,191,191)" stroke-width="1" font-size="16" >H</text>
<text x="52.888889" y="331.300755" fill="rgb(191,191,191)"  stroke="rgb(191,191,191)" stroke-width="1" font-size="16" >H</text>
<text x="71.777778" y="260.806462" fill="rgb(191,191,191)"  stroke="rgb(191,191,191)" stroke-width="1" font-size="16" >H</text>
<text x="85.605404" y="246.978836" fill="rgb(191,191,191)"  stroke="rgb(191,191,191)" stroke-width="1" font-size="16" >H</text>
<text x="85.605404" y="284.756613" fill="rgb(191,191,191)"  stroke="rgb(191,191,191)" stroke-width="1" font-size="16" >H</text>
<text x="137.210808" y="233.151209" fill="rgb(191,191,191)"  stroke="rgb(191,191,191)" stroke-width="1" font-size="16" >H</text>
<text x="128.444444" y="472.289341" fill="rgb(191,191,191)"  stroke="rgb(191,191,191)" stroke-width="1" font-size="16" >H</text>
<text x="128.444444" y="434.511563" fill="rgb(191,191,191)"  stroke="rgb(191,191,191)" stroke-width="1" font-size="16" >H</text>
<text x="180.049849" y="486.116967" fill="rgb(191,191,191)"  stroke="rgb(191,191,191)" stroke-width="1" font-size="16" >H</text>
<text x="278.199394" y="477.350604" fill="rgb(191,191,191)"  stroke="rgb(191,191,191)" stroke-width="1" font-size="16" >H</text>
<text x="343.632425" y="439.572826" fill="rgb(191,191,191)"  stroke="rgb(191,191,191)" stroke-width="1" font-size="16" >H</text>
<text x="348.693687" y="382.906159" fill="rgb(191,191,191)"  stroke="rgb(191,191,191)" stroke-width="1" font-size="16" >H</text>
<text x="362.521314" y="331.300755" fill="rgb(191,191,191)"  stroke="rgb(191,191,191)" stroke-width="1" font-size="16" >H</text>
<text x="362.521314" y="369.078533" fill="rgb(191,191,191)"  stroke="rgb(191,191,191)" stroke-width="1" font-size="16" >H</text>
<text x="310.915910" y="317.473129" fill="rgb(191,191,191)"  stroke="rgb(191,191,191)" stroke-width="1" font-size="16" >H</text>
<text font-size="18.000000" fill ="black" font-family="sans-serif"
x="10.000000" y="20.000000" ></text>
<title> - OBDepict</title>
</svg>
