<?xml version="1.0" encoding="utf-8"?>
<!-- Generator: Adobe Illustrator 17.0.0, SVG Export Plug-In . SVG Version: 6.00 Build 0)  -->
<!DOCTYPE svg PUBLIC "-//W3C//DTD SVG 1.1//EN" "http://www.w3.org/Graphics/SVG/1.1/DTD/svg11.dtd">
<svg version="1.1" xmlns="http://www.w3.org/2000/svg" xmlns:xlink="http://www.w3.org/1999/xlink" x="0px" y="0px"
	 width="646.932px" height="386.974px" viewBox="0 0 646.932 386.974" enable-background="new 0 0 646.932 386.974"
	 xml:space="preserve">
<g id="amber_workflow">
</g>
<g id="md_workflow" display="none">
</g>
<g id="md_workflow_OUTLINES">
</g>
<g id="amber_analysis" display="none">
	<g display="inline">
		<g>
			
				<line fill="none" stroke="#7AC943" stroke-width="2" stroke-linecap="round" stroke-miterlimit="10" x1="76.042" y1="156.351" x2="153.358" y2="230.623"/>
			
				<line fill="none" stroke="#7AC943" stroke-width="2" stroke-linecap="round" stroke-miterlimit="10" x1="153.358" y1="153.929" x2="153.358" y2="230.623"/>
			
				<line fill="none" stroke="#7AC943" stroke-width="2" stroke-linecap="round" stroke-miterlimit="10" x1="230.673" y1="156.351" x2="153.358" y2="230.623"/>
			<g>
				<path fill="#666666" d="M113.533,153.351c0,1.65-1.35,3-3,3H41.552c-1.65,0-3-1.35-3-3v-32.452c0-1.65,1.35-3,3-3h68.981
					c1.65,0,3,1.35,3,3V153.351z"/>
			</g>
			<text transform="matrix(1 0 0 1 58.235 142.8345)" fill="#FFFFFF" font-family="'FFTisaPro-Bold'" font-size="19.7751">MD</text>
			<g>
				<path fill="#666666" d="M190.848,153.351c0,1.65-1.35,3-3,3h-68.981c-1.65,0-3-1.35-3-3v-32.452c0-1.65,1.35-3,3-3h68.981
					c1.65,0,3,1.35,3,3V153.351z"/>
			</g>
			<text transform="matrix(1 0 0 1 135.5494 142.8345)" fill="#FFFFFF" font-family="'FFTisaPro-Bold'" font-size="19.7751">MD</text>
			<g>
				<path fill="#7AC943" d="M190.848,266.075c0,1.65-1.35,3-3,3h-68.981c-1.65,0-3-1.35-3-3v-32.452c0-1.65,1.35-3,3-3h68.981
					c1.65,0,3,1.35,3,3V266.075z"/>
			</g>
			<text transform="matrix(1 0 0 1 135.5494 255.5572)" fill="#FFFFFF" font-family="'FFTisaPro-Bold'" font-size="19.7751">MD</text>
			<g>
				<path fill="#666666" d="M268.163,153.351c0,1.65-1.35,3-3,3h-68.981c-1.65,0-3-1.35-3-3v-32.452c0-1.65,1.35-3,3-3h68.981
					c1.65,0,3,1.35,3,3V153.351z"/>
			</g>
			<text transform="matrix(1 0 0 1 212.8678 142.8345)" fill="#FFFFFF" font-family="'FFTisaPro-Bold'" font-size="19.7751">MD</text>
		</g>
		<g>
			
				<line fill="none" stroke="#7AC943" stroke-width="2" stroke-linecap="round" stroke-miterlimit="10" x1="463.356" y1="147.802" x2="534.838" y2="237.992"/>
			
				<line fill="none" stroke="#7AC943" stroke-width="2" stroke-linecap="round" stroke-miterlimit="10" x1="534.838" y1="147.802" x2="534.838" y2="237.992"/>
			
				<line fill="none" stroke="#7AC943" stroke-width="2" stroke-linecap="round" stroke-miterlimit="10" x1="606.32" y1="146.257" x2="534.838" y2="237.992"/>
			<g>
				<path fill="#7AC943" d="M577.016,278.252c0,1.65-1.35,3-3,3h-78.357c-1.65,0-3-1.35-3-3v-37.26c0-1.65,1.35-3,3-3h78.357
					c1.65,0,3,1.35,3,3V278.252z"/>
			</g>
			<text transform="matrix(1 0 0 1 514.8038 266.0475)" fill="#FFFFFF" font-family="'FFTisaPro-Bold'" font-size="22.248">MD</text>
			<rect x="461.296" y="105.722" fill="#666666" width="4.12" height="43.26"/>
			<rect x="469.238" y="105.722" fill="#7AC943" width="4.12" height="43.26"/>
			<rect x="477.181" y="105.722" fill="#7AC943" width="4.12" height="43.26"/>
			<rect x="485.123" y="105.722" fill="#7AC943" width="4.12" height="43.26"/>
			<rect x="493.066" y="105.722" fill="#7AC943" width="4.12" height="43.26"/>
			<rect x="501.008" y="105.722" fill="#7AC943" width="4.12" height="43.26"/>
			<rect x="508.951" y="105.722" fill="#7AC943" width="4.12" height="43.26"/>
			<rect x="516.893" y="105.722" fill="#7AC943" width="4.12" height="43.26"/>
			<rect x="524.835" y="105.722" fill="#7AC943" width="4.12" height="43.26"/>
			<rect x="532.778" y="105.722" fill="#666666" width="4.12" height="43.26"/>
			<rect x="540.72" y="105.722" fill="#7AC943" width="4.12" height="43.26"/>
			<rect x="548.663" y="105.722" fill="#7AC943" width="4.12" height="43.26"/>
			<rect x="556.605" y="105.722" fill="#7AC943" width="4.12" height="43.26"/>
			<rect x="564.548" y="105.722" fill="#7AC943" width="4.12" height="43.26"/>
			<rect x="572.49" y="105.722" fill="#7AC943" width="4.12" height="43.26"/>
			<rect x="580.432" y="105.722" fill="#7AC943" width="4.12" height="43.26"/>
			<rect x="588.375" y="105.722" fill="#7AC943" width="4.12" height="43.26"/>
			<rect x="596.317" y="105.722" fill="#7AC943" width="4.12" height="43.26"/>
			<rect x="604.26" y="105.722" fill="#666666" width="4.12" height="43.26"/>
		</g>
		<g>
			<path fill="#E6E6E6" stroke="#CCCCCC" stroke-width="0.5" stroke-miterlimit="10" d="M317.431,176.704
				c12.479-0.725,26.194,4.503,33.465,18.229c5.179,9.778,2.096,20.366-0.058,31.109l-32.71-16.43L317.431,176.704z"/>
			<circle fill="#7AC943" cx="318.172" cy="210.329" r="16.183"/>
			<circle fill="#7AC943" cx="436.47" cy="267.233" r="16.183"/>
			<line fill="none" stroke="#7AC943" stroke-miterlimit="10" x1="318.172" y1="210.329" x2="436.47" y2="267.233"/>
			<text transform="matrix(1 -0.0068 0.0068 1 380.9433 231.3347)" font-family="'FFTisaPro-Italic'" font-size="16.1175">d</text>
			<circle fill="#7AC943" cx="316.253" cy="119.742" r="16.183"/>
			<line fill="none" stroke="#7AC943" stroke-miterlimit="10" x1="318.128" y1="209.612" x2="316.253" y2="119.742"/>
			<text transform="matrix(0.9999 -0.0121 0.0121 0.9999 333.5313 201.1671)" font-family="'Symbol'" font-size="16.1175">a</text>
		</g>
	</g>
</g>
<g id="amber_analysis_OUTLINES">
	<g>
		<g>
			
				<line fill="none" stroke="#7AC943" stroke-width="2" stroke-linecap="round" stroke-miterlimit="10" x1="76.042" y1="156.351" x2="153.358" y2="230.623"/>
			
				<line fill="none" stroke="#7AC943" stroke-width="2" stroke-linecap="round" stroke-miterlimit="10" x1="153.358" y1="153.929" x2="153.358" y2="230.623"/>
			
				<line fill="none" stroke="#7AC943" stroke-width="2" stroke-linecap="round" stroke-miterlimit="10" x1="230.673" y1="156.351" x2="153.358" y2="230.623"/>
			<g>
				<path fill="#666666" d="M113.533,153.351c0,1.65-1.35,3-3,3H41.552c-1.65,0-3-1.35-3-3v-32.452c0-1.65,1.35-3,3-3h68.981
					c1.65,0,3,1.35,3,3V153.351z"/>
			</g>
			<g>
				<path fill="#FFFFFF" d="M63.931,134.568c-0.079-0.217-0.158-0.455-0.237-0.751s-0.158-0.593-0.218-0.89
					c-0.06-0.316-0.118-0.633-0.178-0.93c-0.06-0.316-0.099-0.613-0.118-0.87h-0.238v9.631c0.198,0.02,0.416,0.059,0.653,0.118
					c0.257,0.04,0.454,0.099,0.633,0.158c0.02,0.099,0.039,0.237,0.06,0.396l0.02,0.515c0.02,0.178,0.02,0.336,0,0.494l-0.02,0.514
					h-5.062c0.02-0.236,0.02-0.375,0.039-0.553c0.02-0.158,0.06-0.316,0.079-0.495l0.118-0.475c0.021-0.138,0.06-0.276,0.1-0.375
					c0.139-0.059,0.336-0.119,0.573-0.178c0.218-0.059,0.415-0.118,0.573-0.138v-9.868l-0.633-0.099
					c-0.237-0.04-0.435-0.079-0.573-0.138c-0.02-0.099-0.04-0.237-0.06-0.416c-0.02-0.158-0.02-0.336-0.02-0.514l0.02-0.494
					c0-0.158,0.02-0.297,0.04-0.396h5.438l2.729,7.297c0.079,0.218,0.158,0.475,0.237,0.771c0.079,0.296,0.158,0.613,0.218,0.929
					c0.059,0.316,0.118,0.633,0.178,0.949c0.039,0.316,0.06,0.593,0.079,0.85h0.237c0.02-0.257,0.039-0.534,0.079-0.85
					c0.06-0.316,0.118-0.633,0.178-0.969c0.06-0.316,0.139-0.633,0.218-0.929s0.158-0.534,0.237-0.732l2.788-7.316h5.24l0.04,0.396
					c0.02,0.158,0.02,0.316,0,0.494l-0.02,0.514c-0.021,0.178-0.04,0.316-0.06,0.416c-0.178,0.059-0.396,0.099-0.692,0.138
					c-0.296,0.04-0.554,0.059-0.751,0.079v9.967l0.791,0.099c0.297,0.039,0.554,0.079,0.771,0.138
					c0.059,0.138,0.099,0.316,0.118,0.534c0.02,0.218,0.02,0.455,0.02,0.673v0.316c-0.02,0.099-0.02,0.197-0.039,0.257h-5.933
					l0.059-0.435c0.021-0.158,0.04-0.316,0.08-0.495c0.02-0.178,0.059-0.336,0.099-0.475c0.039-0.138,0.079-0.276,0.118-0.375
					c0.139-0.059,0.336-0.138,0.574-0.198c0.236-0.06,0.454-0.099,0.633-0.119v-9.69h-0.238c-0.078,0.573-0.197,1.206-0.336,1.879
					c-0.158,0.672-0.336,1.266-0.514,1.799l-2.947,8.326h-2.115L63.931,134.568z"/>
				<path fill="#FFFFFF" d="M80.363,130.969c-0.257-0.02-0.455-0.06-0.633-0.079c-0.039-0.297-0.059-0.613-0.079-0.91
					c-0.02-0.296,0-0.613,0.06-0.949l1.325-0.138c0.514-0.04,1.048-0.079,1.582-0.119l1.542-0.079c0.494-0.02,0.93-0.02,1.266-0.02
					c1.147,0,2.195,0.139,3.145,0.396c0.949,0.277,1.76,0.692,2.433,1.266c0.672,0.573,1.206,1.285,1.582,2.136
					c0.376,0.87,0.554,1.898,0.554,3.085c0,1.285-0.198,2.413-0.594,3.342c-0.415,0.93-0.93,1.701-1.582,2.294
					c-0.652,0.613-1.404,1.049-2.234,1.345c-0.83,0.297-1.681,0.436-2.531,0.436h-1.582c-0.613-0.021-1.227-0.021-1.839-0.04
					l-1.839-0.059c-0.613-0.021-1.147-0.06-1.622-0.08l0.06-0.435c0.02-0.158,0.059-0.316,0.099-0.494
					c0.02-0.179,0.06-0.336,0.118-0.475l0.119-0.376c0.079-0.02,0.178-0.06,0.297-0.099l0.355-0.079
					c0.119-0.02,0.237-0.06,0.356-0.079l0.316-0.04v-9.65L80.363,130.969z M84.081,140.956c0.218,0.02,0.475,0.04,0.771,0.04
					l0.771,0.02c0.652,0,1.245-0.099,1.779-0.297c0.534-0.178,1.009-0.494,1.404-0.909c0.376-0.416,0.673-0.93,0.89-1.582
					c0.218-0.653,0.316-1.424,0.316-2.354c0-0.91-0.118-1.701-0.336-2.354c-0.218-0.652-0.534-1.206-0.949-1.641
					s-0.91-0.751-1.483-0.969c-0.573-0.197-1.226-0.296-1.938-0.296l-0.613,0.02c-0.237,0.02-0.435,0.039-0.613,0.059V140.956z"/>
			</g>
			<g>
				<path fill="#666666" d="M190.848,153.351c0,1.65-1.35,3-3,3h-68.981c-1.65,0-3-1.35-3-3v-32.452c0-1.65,1.35-3,3-3h68.981
					c1.65,0,3,1.35,3,3V153.351z"/>
			</g>
			<g>
				<path fill="#FFFFFF" d="M141.245,134.568c-0.079-0.217-0.158-0.455-0.237-0.751s-0.158-0.593-0.218-0.89
					c-0.06-0.316-0.118-0.633-0.178-0.93c-0.06-0.316-0.099-0.613-0.118-0.87h-0.238v9.631c0.198,0.02,0.416,0.059,0.653,0.118
					c0.257,0.04,0.454,0.099,0.633,0.158c0.02,0.099,0.039,0.237,0.06,0.396l0.02,0.515c0.02,0.178,0.02,0.336,0,0.494l-0.02,0.514
					h-5.062c0.02-0.236,0.02-0.375,0.039-0.553c0.02-0.158,0.06-0.316,0.079-0.495l0.118-0.475c0.021-0.138,0.06-0.276,0.1-0.375
					c0.139-0.059,0.336-0.119,0.573-0.178c0.218-0.059,0.415-0.118,0.573-0.138v-9.868l-0.633-0.099
					c-0.237-0.04-0.435-0.079-0.573-0.138c-0.02-0.099-0.04-0.237-0.06-0.416c-0.02-0.158-0.02-0.336-0.02-0.514l0.02-0.494
					c0-0.158,0.02-0.297,0.04-0.396h5.438l2.729,7.297c0.079,0.218,0.158,0.475,0.237,0.771c0.079,0.296,0.158,0.613,0.218,0.929
					c0.059,0.316,0.118,0.633,0.178,0.949c0.039,0.316,0.06,0.593,0.079,0.85h0.237c0.02-0.257,0.039-0.534,0.079-0.85
					c0.06-0.316,0.118-0.633,0.178-0.969c0.06-0.316,0.139-0.633,0.218-0.929s0.158-0.534,0.237-0.732l2.788-7.316h5.24l0.04,0.396
					c0.02,0.158,0.02,0.316,0,0.494l-0.02,0.514c-0.021,0.178-0.04,0.316-0.06,0.416c-0.178,0.059-0.396,0.099-0.692,0.138
					c-0.296,0.04-0.554,0.059-0.751,0.079v9.967l0.791,0.099c0.297,0.039,0.554,0.079,0.771,0.138
					c0.059,0.138,0.099,0.316,0.118,0.534c0.02,0.218,0.02,0.455,0.02,0.673v0.316c-0.02,0.099-0.02,0.197-0.039,0.257h-5.933
					l0.059-0.435c0.021-0.158,0.04-0.316,0.08-0.495c0.02-0.178,0.059-0.336,0.099-0.475c0.039-0.138,0.079-0.276,0.118-0.375
					c0.139-0.059,0.336-0.138,0.574-0.198c0.236-0.06,0.454-0.099,0.633-0.119v-9.69h-0.238c-0.078,0.573-0.197,1.206-0.336,1.879
					c-0.158,0.672-0.336,1.266-0.514,1.799l-2.947,8.326h-2.115L141.245,134.568z"/>
				<path fill="#FFFFFF" d="M157.678,130.969c-0.257-0.02-0.455-0.06-0.633-0.079c-0.039-0.297-0.059-0.613-0.079-0.91
					c-0.02-0.296,0-0.613,0.06-0.949l1.325-0.138c0.514-0.04,1.048-0.079,1.582-0.119l1.542-0.079c0.494-0.02,0.93-0.02,1.266-0.02
					c1.147,0,2.195,0.139,3.145,0.396c0.949,0.277,1.76,0.692,2.433,1.266c0.672,0.573,1.206,1.285,1.582,2.136
					c0.376,0.87,0.554,1.898,0.554,3.085c0,1.285-0.198,2.413-0.594,3.342c-0.415,0.93-0.93,1.701-1.582,2.294
					c-0.652,0.613-1.404,1.049-2.234,1.345c-0.83,0.297-1.681,0.436-2.531,0.436h-1.582c-0.613-0.021-1.227-0.021-1.839-0.04
					l-1.839-0.059c-0.613-0.021-1.147-0.06-1.622-0.08l0.06-0.435c0.02-0.158,0.059-0.316,0.099-0.494
					c0.02-0.179,0.06-0.336,0.118-0.475l0.119-0.376c0.079-0.02,0.178-0.06,0.297-0.099l0.355-0.079
					c0.119-0.02,0.237-0.06,0.356-0.079l0.316-0.04v-9.65L157.678,130.969z M161.396,140.956c0.218,0.02,0.475,0.04,0.771,0.04
					l0.771,0.02c0.652,0,1.245-0.099,1.779-0.297c0.534-0.178,1.009-0.494,1.404-0.909c0.376-0.416,0.673-0.93,0.89-1.582
					c0.218-0.653,0.316-1.424,0.316-2.354c0-0.91-0.118-1.701-0.336-2.354c-0.218-0.652-0.534-1.206-0.949-1.641
					s-0.91-0.751-1.483-0.969c-0.573-0.197-1.226-0.296-1.938-0.296l-0.613,0.02c-0.237,0.02-0.435,0.039-0.613,0.059V140.956z"/>
			</g>
			<g>
				<path fill="#7AC943" d="M190.848,266.075c0,1.65-1.35,3-3,3h-68.981c-1.65,0-3-1.35-3-3v-32.452c0-1.65,1.35-3,3-3h68.981
					c1.65,0,3,1.35,3,3V266.075z"/>
			</g>
			<g>
				<path fill="#FFFFFF" d="M141.245,247.291c-0.079-0.217-0.158-0.454-0.237-0.751s-0.158-0.593-0.218-0.89
					c-0.06-0.316-0.118-0.633-0.178-0.93c-0.06-0.316-0.099-0.613-0.118-0.87h-0.238v9.631c0.198,0.02,0.416,0.06,0.653,0.118
					c0.257,0.04,0.454,0.1,0.633,0.158c0.02,0.1,0.039,0.237,0.06,0.396l0.02,0.515c0.02,0.178,0.02,0.336,0,0.494l-0.02,0.514
					h-5.062c0.02-0.236,0.02-0.375,0.039-0.553c0.02-0.158,0.06-0.316,0.079-0.495l0.118-0.475c0.021-0.138,0.06-0.276,0.1-0.376
					c0.139-0.059,0.336-0.118,0.573-0.178c0.218-0.059,0.415-0.118,0.573-0.139v-9.867l-0.633-0.1
					c-0.237-0.039-0.435-0.078-0.573-0.138c-0.02-0.099-0.04-0.237-0.06-0.415c-0.02-0.158-0.02-0.337-0.02-0.515l0.02-0.494
					c0-0.158,0.02-0.297,0.04-0.396h5.438l2.729,7.297c0.079,0.218,0.158,0.475,0.237,0.771s0.158,0.613,0.218,0.93
					c0.059,0.316,0.118,0.633,0.178,0.949c0.039,0.316,0.06,0.593,0.079,0.85h0.237c0.02-0.257,0.039-0.533,0.079-0.85
					c0.06-0.316,0.118-0.633,0.178-0.97c0.06-0.316,0.139-0.633,0.218-0.929c0.079-0.297,0.158-0.534,0.237-0.732l2.788-7.316h5.24
					l0.04,0.396c0.02,0.158,0.02,0.316,0,0.494l-0.02,0.515c-0.021,0.178-0.04,0.316-0.06,0.415
					c-0.178,0.06-0.396,0.099-0.692,0.138c-0.296,0.04-0.554,0.06-0.751,0.08v9.967l0.791,0.099
					c0.297,0.039,0.554,0.079,0.771,0.138c0.059,0.139,0.099,0.316,0.118,0.534s0.02,0.455,0.02,0.673v0.316
					c-0.02,0.099-0.02,0.197-0.039,0.257h-5.933l0.059-0.435c0.021-0.158,0.04-0.316,0.08-0.495c0.02-0.178,0.059-0.336,0.099-0.475
					c0.039-0.138,0.079-0.276,0.118-0.376c0.139-0.059,0.336-0.138,0.574-0.197c0.236-0.06,0.454-0.099,0.633-0.119v-9.689h-0.238
					c-0.078,0.573-0.197,1.206-0.336,1.879c-0.158,0.672-0.336,1.266-0.514,1.799l-2.947,8.326h-2.115L141.245,247.291z"/>
				<path fill="#FFFFFF" d="M157.678,243.692c-0.257-0.02-0.455-0.06-0.633-0.079c-0.039-0.297-0.059-0.613-0.079-0.91
					c-0.02-0.296,0-0.612,0.06-0.949l1.325-0.138c0.514-0.04,1.048-0.079,1.582-0.119l1.542-0.079c0.494-0.02,0.93-0.02,1.266-0.02
					c1.147,0,2.195,0.139,3.145,0.396c0.949,0.276,1.76,0.692,2.433,1.266c0.672,0.573,1.206,1.285,1.582,2.136
					c0.376,0.87,0.554,1.898,0.554,3.085c0,1.285-0.198,2.413-0.594,3.342c-0.415,0.93-0.93,1.701-1.582,2.294
					c-0.652,0.613-1.404,1.049-2.234,1.345c-0.83,0.297-1.681,0.436-2.531,0.436h-1.582c-0.613-0.021-1.227-0.021-1.839-0.04
					l-1.839-0.059c-0.613-0.021-1.147-0.06-1.622-0.08l0.06-0.435c0.02-0.158,0.059-0.316,0.099-0.494
					c0.02-0.179,0.06-0.337,0.118-0.475l0.119-0.376c0.079-0.02,0.178-0.06,0.297-0.099l0.355-0.079
					c0.119-0.02,0.237-0.06,0.356-0.079l0.316-0.04v-9.65L157.678,243.692z M161.396,253.678c0.218,0.021,0.475,0.04,0.771,0.04
					l0.771,0.02c0.652,0,1.245-0.099,1.779-0.297c0.534-0.178,1.009-0.494,1.404-0.909c0.376-0.415,0.673-0.93,0.89-1.582
					c0.218-0.653,0.316-1.424,0.316-2.354c0-0.909-0.118-1.7-0.336-2.354c-0.218-0.652-0.534-1.206-0.949-1.642
					c-0.415-0.435-0.91-0.751-1.483-0.969c-0.573-0.197-1.226-0.297-1.938-0.297l-0.613,0.021c-0.237,0.02-0.435,0.039-0.613,0.06
					V253.678z"/>
			</g>
			<g>
				<path fill="#666666" d="M268.163,153.351c0,1.65-1.35,3-3,3h-68.981c-1.65,0-3-1.35-3-3v-32.452c0-1.65,1.35-3,3-3h68.981
					c1.65,0,3,1.35,3,3V153.351z"/>
			</g>
			<g>
				<path fill="#FFFFFF" d="M218.563,134.568c-0.079-0.217-0.158-0.455-0.237-0.751s-0.158-0.593-0.218-0.89
					c-0.06-0.316-0.118-0.633-0.178-0.93c-0.06-0.316-0.099-0.613-0.118-0.87h-0.238v9.631c0.198,0.02,0.416,0.059,0.653,0.118
					c0.257,0.04,0.454,0.099,0.633,0.158c0.02,0.099,0.039,0.237,0.06,0.396l0.02,0.515c0.02,0.178,0.02,0.336,0,0.494l-0.02,0.514
					h-5.062c0.02-0.236,0.02-0.375,0.039-0.553c0.02-0.158,0.06-0.316,0.079-0.495l0.118-0.475c0.021-0.138,0.06-0.276,0.1-0.375
					c0.139-0.059,0.336-0.119,0.573-0.178c0.218-0.059,0.415-0.118,0.573-0.138v-9.868l-0.633-0.099
					c-0.237-0.04-0.435-0.079-0.573-0.138c-0.02-0.099-0.04-0.237-0.06-0.416c-0.02-0.158-0.02-0.336-0.02-0.514l0.02-0.494
					c0-0.158,0.02-0.297,0.04-0.396h5.438l2.729,7.297c0.079,0.218,0.158,0.475,0.237,0.771c0.079,0.296,0.158,0.613,0.218,0.929
					c0.059,0.316,0.118,0.633,0.178,0.949c0.039,0.316,0.06,0.593,0.079,0.85h0.237c0.02-0.257,0.039-0.534,0.079-0.85
					c0.06-0.316,0.118-0.633,0.178-0.969c0.06-0.316,0.139-0.633,0.218-0.929s0.158-0.534,0.237-0.732l2.788-7.316h5.24l0.04,0.396
					c0.02,0.158,0.02,0.316,0,0.494l-0.02,0.514c-0.021,0.178-0.04,0.316-0.06,0.416c-0.178,0.059-0.396,0.099-0.692,0.138
					c-0.296,0.04-0.554,0.059-0.751,0.079v9.967l0.791,0.099c0.297,0.039,0.554,0.079,0.771,0.138
					c0.059,0.138,0.099,0.316,0.118,0.534c0.02,0.218,0.02,0.455,0.02,0.673v0.316c-0.02,0.099-0.02,0.197-0.039,0.257h-5.933
					l0.059-0.435c0.021-0.158,0.04-0.316,0.08-0.495c0.02-0.178,0.059-0.336,0.099-0.475c0.039-0.138,0.079-0.276,0.118-0.375
					c0.139-0.059,0.336-0.138,0.574-0.198c0.236-0.06,0.454-0.099,0.633-0.119v-9.69h-0.238c-0.078,0.573-0.197,1.206-0.336,1.879
					c-0.158,0.672-0.336,1.266-0.514,1.799l-2.947,8.326h-2.115L218.563,134.568z"/>
				<path fill="#FFFFFF" d="M234.996,130.969c-0.257-0.02-0.455-0.06-0.633-0.079c-0.039-0.297-0.059-0.613-0.079-0.91
					c-0.02-0.296,0-0.613,0.06-0.949l1.325-0.138c0.514-0.04,1.048-0.079,1.582-0.119l1.542-0.079c0.494-0.02,0.93-0.02,1.266-0.02
					c1.147,0,2.195,0.139,3.145,0.396c0.949,0.277,1.76,0.692,2.433,1.266c0.672,0.573,1.206,1.285,1.582,2.136
					c0.376,0.87,0.554,1.898,0.554,3.085c0,1.285-0.198,2.413-0.594,3.342c-0.415,0.93-0.93,1.701-1.582,2.294
					c-0.652,0.613-1.404,1.049-2.234,1.345c-0.83,0.297-1.681,0.436-2.531,0.436h-1.582c-0.613-0.021-1.227-0.021-1.839-0.04
					l-1.839-0.059c-0.613-0.021-1.147-0.06-1.622-0.08l0.06-0.435c0.02-0.158,0.059-0.316,0.099-0.494
					c0.02-0.179,0.06-0.336,0.118-0.475l0.119-0.376c0.079-0.02,0.178-0.06,0.297-0.099l0.355-0.079
					c0.119-0.02,0.237-0.06,0.356-0.079l0.316-0.04v-9.65L234.996,130.969z M238.714,140.956c0.218,0.02,0.475,0.04,0.771,0.04
					l0.771,0.02c0.652,0,1.245-0.099,1.779-0.297c0.534-0.178,1.009-0.494,1.404-0.909c0.376-0.416,0.673-0.93,0.89-1.582
					c0.218-0.653,0.316-1.424,0.316-2.354c0-0.91-0.118-1.701-0.336-2.354c-0.218-0.652-0.534-1.206-0.949-1.641
					s-0.91-0.751-1.483-0.969c-0.573-0.197-1.226-0.296-1.938-0.296l-0.613,0.02c-0.237,0.02-0.435,0.039-0.613,0.059V140.956z"/>
			</g>
		</g>
		<g>
			
				<line fill="none" stroke="#7AC943" stroke-width="2" stroke-linecap="round" stroke-miterlimit="10" x1="463.356" y1="147.802" x2="534.838" y2="237.992"/>
			
				<line fill="none" stroke="#7AC943" stroke-width="2" stroke-linecap="round" stroke-miterlimit="10" x1="534.838" y1="147.802" x2="534.838" y2="237.992"/>
			
				<line fill="none" stroke="#7AC943" stroke-width="2" stroke-linecap="round" stroke-miterlimit="10" x1="606.32" y1="146.257" x2="534.838" y2="237.992"/>
			<g>
				<path fill="#7AC943" d="M577.016,278.252c0,1.65-1.35,3-3,3h-78.357c-1.65,0-3-1.35-3-3v-37.26c0-1.65,1.35-3,3-3h78.357
					c1.65,0,3,1.35,3,3V278.252z"/>
			</g>
			<g>
				<path fill="#FFFFFF" d="M521.211,256.748c-0.089-0.244-0.178-0.512-0.267-0.845c-0.09-0.334-0.179-0.668-0.245-1.001
					c-0.066-0.356-0.134-0.712-0.2-1.046c-0.066-0.356-0.111-0.689-0.134-0.979h-0.267v10.835c0.223,0.022,0.467,0.066,0.734,0.134
					c0.289,0.044,0.512,0.111,0.712,0.178c0.022,0.111,0.044,0.267,0.066,0.445l0.022,0.578c0.022,0.2,0.022,0.378,0,0.556
					l-0.022,0.579h-5.695c0.022-0.268,0.022-0.423,0.045-0.623c0.021-0.178,0.066-0.356,0.089-0.557l0.133-0.533
					c0.022-0.156,0.067-0.312,0.111-0.423c0.156-0.067,0.379-0.134,0.646-0.2c0.245-0.067,0.467-0.134,0.646-0.156v-11.102
					l-0.712-0.111c-0.268-0.044-0.49-0.089-0.646-0.155c-0.022-0.111-0.045-0.267-0.066-0.467c-0.022-0.179-0.022-0.379-0.022-0.579
					l0.022-0.556c0-0.179,0.021-0.334,0.044-0.445h6.118l3.07,8.209c0.089,0.245,0.178,0.534,0.267,0.868s0.179,0.689,0.245,1.046
					c0.066,0.355,0.134,0.712,0.2,1.067c0.044,0.356,0.066,0.668,0.089,0.957h0.267c0.022-0.289,0.045-0.601,0.089-0.957
					c0.067-0.355,0.134-0.712,0.201-1.09c0.066-0.356,0.155-0.712,0.244-1.046s0.178-0.601,0.268-0.823l3.137-8.231h5.896
					l0.044,0.445c0.022,0.178,0.022,0.355,0,0.556l-0.022,0.579c-0.021,0.2-0.044,0.355-0.066,0.467
					c-0.2,0.066-0.444,0.111-0.778,0.155c-0.334,0.045-0.623,0.067-0.846,0.09v11.212l0.89,0.111
					c0.334,0.045,0.623,0.089,0.868,0.156c0.066,0.155,0.111,0.355,0.133,0.601c0.022,0.244,0.022,0.512,0.022,0.756v0.356
					c-0.022,0.111-0.022,0.223-0.044,0.289h-6.675l0.067-0.489c0.021-0.178,0.044-0.356,0.089-0.557
					c0.022-0.2,0.066-0.378,0.111-0.533c0.044-0.156,0.089-0.312,0.133-0.423c0.156-0.067,0.379-0.156,0.646-0.223
					s0.512-0.111,0.712-0.134v-10.901h-0.267c-0.089,0.646-0.223,1.357-0.379,2.114c-0.178,0.756-0.378,1.424-0.578,2.024
					l-3.314,9.366h-2.381L521.211,256.748z"/>
				<path fill="#FFFFFF" d="M539.699,252.699c-0.289-0.022-0.512-0.066-0.712-0.089c-0.045-0.334-0.067-0.689-0.089-1.023
					c-0.022-0.334,0-0.689,0.066-1.067l1.49-0.156c0.579-0.044,1.18-0.089,1.78-0.133l1.735-0.09
					c0.556-0.021,1.046-0.021,1.424-0.021c1.29,0,2.47,0.155,3.537,0.444c1.067,0.312,1.98,0.779,2.736,1.424
					c0.757,0.646,1.357,1.446,1.78,2.403c0.422,0.979,0.622,2.136,0.622,3.471c0,1.445-0.222,2.714-0.667,3.76
					c-0.467,1.045-1.046,1.913-1.779,2.58c-0.734,0.689-1.58,1.18-2.515,1.513c-0.935,0.334-1.891,0.489-2.848,0.489h-1.779
					c-0.689-0.021-1.38-0.021-2.069-0.044l-2.069-0.066c-0.689-0.022-1.29-0.067-1.824-0.09l0.067-0.489
					c0.021-0.178,0.066-0.355,0.111-0.556c0.021-0.2,0.066-0.379,0.133-0.534l0.134-0.423c0.089-0.022,0.2-0.066,0.334-0.111
					l0.4-0.089c0.133-0.022,0.267-0.066,0.4-0.089l0.355-0.045V252.81L539.699,252.699z M543.882,263.934
					c0.244,0.022,0.533,0.044,0.867,0.044l0.868,0.022c0.733,0,1.401-0.111,2.002-0.334c0.601-0.2,1.135-0.556,1.579-1.023
					c0.423-0.467,0.757-1.045,1.002-1.779c0.244-0.734,0.355-1.602,0.355-2.647c0-1.023-0.134-1.913-0.378-2.647
					c-0.245-0.734-0.601-1.357-1.068-1.847c-0.467-0.489-1.023-0.846-1.668-1.09c-0.646-0.223-1.38-0.334-2.181-0.334l-0.689,0.022
					c-0.268,0.022-0.489,0.045-0.689,0.066V263.934z"/>
			</g>
			<rect x="461.296" y="105.722" fill="#666666" width="4.12" height="43.26"/>
			<rect x="469.238" y="105.722" fill="#7AC943" width="4.12" height="43.26"/>
			<rect x="477.181" y="105.722" fill="#7AC943" width="4.12" height="43.26"/>
			<rect x="485.123" y="105.722" fill="#7AC943" width="4.12" height="43.26"/>
			<rect x="493.066" y="105.722" fill="#7AC943" width="4.12" height="43.26"/>
			<rect x="501.008" y="105.722" fill="#7AC943" width="4.12" height="43.26"/>
			<rect x="508.951" y="105.722" fill="#7AC943" width="4.12" height="43.26"/>
			<rect x="516.893" y="105.722" fill="#7AC943" width="4.12" height="43.26"/>
			<rect x="524.835" y="105.722" fill="#7AC943" width="4.12" height="43.26"/>
			<rect x="532.778" y="105.722" fill="#666666" width="4.12" height="43.26"/>
			<rect x="540.72" y="105.722" fill="#7AC943" width="4.12" height="43.26"/>
			<rect x="548.663" y="105.722" fill="#7AC943" width="4.12" height="43.26"/>
			<rect x="556.605" y="105.722" fill="#7AC943" width="4.12" height="43.26"/>
			<rect x="564.548" y="105.722" fill="#7AC943" width="4.12" height="43.26"/>
			<rect x="572.49" y="105.722" fill="#7AC943" width="4.12" height="43.26"/>
			<rect x="580.432" y="105.722" fill="#7AC943" width="4.12" height="43.26"/>
			<rect x="588.375" y="105.722" fill="#7AC943" width="4.12" height="43.26"/>
			<rect x="596.317" y="105.722" fill="#7AC943" width="4.12" height="43.26"/>
			<rect x="604.26" y="105.722" fill="#666666" width="4.12" height="43.26"/>
		</g>
		<g>
			<path fill="#E6E6E6" stroke="#CCCCCC" stroke-width="0.5" stroke-miterlimit="10" d="M317.431,176.704
				c12.479-0.725,26.194,4.503,33.465,18.229c5.179,9.778,2.096,20.366-0.058,31.109l-32.71-16.43L317.431,176.704z"/>
			<circle fill="#7AC943" cx="318.172" cy="210.329" r="16.183"/>
			<circle fill="#7AC943" cx="436.47" cy="267.233" r="16.183"/>
			<line fill="none" stroke="#7AC943" stroke-miterlimit="10" x1="318.172" y1="210.329" x2="436.47" y2="267.233"/>
			<g>
				<path d="M387.091,230.247c0.017,0.08,0.033,0.129,0.049,0.177l1.24-0.121c0.001,0.112-0.03,0.273-0.078,0.452
					c-0.046,0.177-0.109,0.322-0.174,0.436c-0.128,0.049-0.273,0.099-0.45,0.148c-0.176,0.049-0.338,0.082-0.515,0.116l-0.515,0.084
					c-0.177,0.017-0.306,0.033-0.419,0.034c-0.081-0.144-0.163-0.337-0.246-0.562c-0.081-0.226-0.132-0.434-0.164-0.627h-0.081
					c-0.319,0.438-0.688,0.745-1.122,0.926s-0.852,0.279-1.255,0.282c-0.306,0.002-0.597-0.044-0.855-0.154
					c-0.259-0.111-0.484-0.271-0.664-0.496c-0.194-0.224-0.341-0.513-0.457-0.883c-0.115-0.354-0.166-0.788-0.17-1.304
					c-0.004-0.677,0.088-1.339,0.262-1.968c0.172-0.63,0.426-1.195,0.762-1.682c0.335-0.501,0.768-0.891,1.281-1.201
					c0.497-0.293,1.076-0.442,1.704-0.446c0.227-0.002,0.451,0.03,0.661,0.076c0.211,0.063,0.42,0.143,0.63,0.222l0.399-3.097
					l-1.16,0.137c0-0.08,0.03-0.226,0.094-0.42c0.047-0.193,0.11-0.323,0.19-0.404c0.192-0.097,0.419-0.18,0.691-0.263
					c0.272-0.082,0.563-0.116,0.886-0.118l0.354,0.014c0.146,0.015,0.243,0.03,0.308,0.046l-1.219,10.434L387.091,230.247z
					 M386.392,224.627c-0.146-0.08-0.307-0.159-0.517-0.207c-0.21-0.046-0.419-0.077-0.597-0.076
					c-0.451,0.003-0.837,0.119-1.174,0.362c-0.337,0.244-0.609,0.521-0.816,0.86c-0.127,0.194-0.239,0.42-0.317,0.662
					c-0.095,0.259-0.175,0.518-0.221,0.791c-0.046,0.274-0.093,0.533-0.106,0.791c-0.031,0.258-0.046,0.499-0.044,0.726
					c0.005,0.692,0.137,1.175,0.396,1.479s0.599,0.447,1.034,0.444c0.338-0.002,0.677-0.102,0.997-0.298
					c0.305-0.195,0.577-0.486,0.784-0.858L386.392,224.627z"/>
			</g>
			<circle fill="#7AC943" cx="316.253" cy="119.742" r="16.183"/>
			<line fill="none" stroke="#7AC943" stroke-miterlimit="10" x1="318.128" y1="209.612" x2="316.253" y2="119.742"/>
			<g>
				<path d="M342.438,193.818l-0.584,2.416c-0.105,0.421-0.227,0.832-0.363,1.232c-0.137,0.399-0.287,0.782-0.451,1.146
					c0.185,0.464,0.38,0.812,0.588,1.042c0.207,0.232,0.427,0.346,0.657,0.343c0.174-0.002,0.318-0.07,0.435-0.205
					c0.117-0.136,0.188-0.316,0.218-0.542l0.307-0.004l0.003,0.173c0.007,0.598-0.071,1.044-0.236,1.337
					c-0.164,0.293-0.417,0.441-0.758,0.446c-0.362,0.004-0.65-0.134-0.863-0.415c-0.213-0.28-0.422-0.819-0.625-1.613
					c-0.416,0.724-0.869,1.25-1.361,1.578c-0.492,0.329-1.074,0.497-1.745,0.506c-1.023,0.013-1.88-0.341-2.567-1.059
					c-0.688-0.719-1.039-1.634-1.053-2.746c-0.013-1.002,0.325-1.882,1.015-2.641c0.688-0.759,1.511-1.145,2.465-1.156
					c0.751-0.009,1.366,0.204,1.846,0.64c0.48,0.436,0.823,1.092,1.028,1.971l0.544-2.431L342.438,193.818z M340.189,197.238
					c-0.25-1.104-0.563-1.897-0.942-2.378c-0.378-0.479-0.866-0.717-1.465-0.71c-0.645,0.008-1.151,0.31-1.52,0.904
					c-0.367,0.595-0.545,1.398-0.533,2.411c0.014,1.097,0.2,1.932,0.562,2.507s0.88,0.859,1.557,0.851
					c0.614-0.007,1.094-0.266,1.439-0.777C339.633,199.536,339.934,198.6,340.189,197.238z"/>
			</g>
		</g>
	</g>
</g>
<g id="Layer_2" display="none">
</g>
</svg>
